# xmcd CD database file
#
# Track frame offsets:
#	150
#	22538
#	41266
#	55951
#	73033
#	87463
#	109371
#	126261
#	143968
#	184751
#	203293
#
# Disc length: 2952 seconds
#
# Revision: 0
# Processed by: cddbd v1.5.1PL0 Copyright (c) Steve Scherf et al.
# Submitted via: CDex 1.51
#
DISCID=920b860b
DTITLE=Blue Blot - Bridge To Your Heart
DYEAR=1900
DGENRE=Blues
TTITLE0=Bridge To Your Heart
TTITLE1=September
TTITLE2=Dance To The Blunk
TTITLE3=No No No
TTITLE4=Love Is Gonna Conquer
TTITLE5=What Have I Done
TTITLE6=Take A Walk On The Moon
TTITLE7=Who Is He And What Is He To You
TTITLE8=D.J. Play My Blues
TTITLE9=Lonely Town Lonely Street
TTITLE10=I'll Be Home On Christmas Day
EXTD=
EXTT0=
EXTT1=
EXTT2=
EXTT3=
EXTT4=
EXTT5=
EXTT6=
EXTT7=
EXTT8=
EXTT9=
EXTT10=
PLAYORDER=
